# xmcd
#
# Track frame offsets:
#      150
#      13977
#      34285
#      51917
#      69030
#      83110
#      100352
#      119700
#      135677
#      150315
#      168382
#      187327
#
# Disc length: 2720 seconds
#
# Revision: 0
# Processed by: cddbd v1.5PL3 Copyright (c) Steve Scherf et al.
# Submitted via: SoundClick v1.0
#
DISCID=a60a9e0c
DTITLE=tracy lawrence - strong
DYEAR=1900
DGENRE=
TTITLE0=It's All How You Look At It
TTITLE1=Strong
TTITLE2=Stones
TTITLE3=Paint Me A Birmingham
TTITLE4=Everywhere But Hollywood
TTITLE5=A Far Cry From You
TTITLE6=Bobby Darwins Daughter
TTITLE7=What The Flames Feel Like
TTITLE8=Sawdust On Her Halo
TTITLE9=When Daddy Was A Strong Man
TTITLE10=Think Of Me
TTITLE11=The Questionaire
EXTD=
EXTT0=
EXTT1=
EXTT2=
EXTT3=
EXTT4=
EXTT5=
EXTT6=
EXTT7=
EXTT8=
EXTT9=
EXTT10=
EXTT11=
PLAYORDER=
